<mxfile host="app.diagrams.net" modified="2022-01-17T20:20:25.393Z" agent="5.0 (Windows NT 10.0; Win64; x64) AppleWebKit/537.36 (KHTML, like Gecko) Chrome/96.0.4664.110 Safari/537.36" etag="pAJ-rDXlk_x0khXrJ7BB" version="15.2.7" type="github">
  <diagram id="qFV3jNqiSBe_29CYPtVP" name="Page-1">
    <mxGraphModel dx="1422" dy="762" grid="1" gridSize="10" guides="1" tooltips="1" connect="1" arrows="1" fold="1" page="1" pageScale="1" pageWidth="827" pageHeight="1169" math="0" shadow="0">
      <root>
        <mxCell id="0" />
        <mxCell id="1" parent="0" />
        <mxCell id="uuzsLNwZXtXoxCtTIN2L-3" style="edgeStyle=orthogonalEdgeStyle;rounded=0;orthogonalLoop=1;jettySize=auto;html=1;strokeWidth=2;startArrow=none;entryX=0;entryY=0.5;entryDx=0;entryDy=0;" parent="1" source="1TxMZOOEquq5v0mNQYeC-1" target="1TxMZOOEquq5v0mNQYeC-6" edge="1">
          <mxGeometry relative="1" as="geometry">
            <mxPoint x="465" y="230" as="targetPoint" />
            <Array as="points" />
          </mxGeometry>
        </mxCell>
        <mxCell id="uuzsLNwZXtXoxCtTIN2L-16" style="edgeStyle=orthogonalEdgeStyle;rounded=0;orthogonalLoop=1;jettySize=auto;html=1;strokeColor=default;strokeWidth=2;startArrow=none;entryX=0.5;entryY=0;entryDx=0;entryDy=0;dashed=1;" parent="1" source="1TxMZOOEquq5v0mNQYeC-1" edge="1" target="1TxMZOOEquq5v0mNQYeC-11">
          <mxGeometry relative="1" as="geometry">
            <mxPoint x="175" y="400" as="targetPoint" />
          </mxGeometry>
        </mxCell>
        <mxCell id="1TxMZOOEquq5v0mNQYeC-22" value="&lt;b&gt;&lt;font style=&quot;font-size: 15px&quot;&gt;Waiting&lt;/font&gt;&lt;/b&gt;" style="edgeLabel;html=1;align=center;verticalAlign=middle;resizable=0;points=[];" vertex="1" connectable="0" parent="uuzsLNwZXtXoxCtTIN2L-16">
          <mxGeometry x="-0.1625" y="-1" relative="1" as="geometry">
            <mxPoint as="offset" />
          </mxGeometry>
        </mxCell>
        <mxCell id="uuzsLNwZXtXoxCtTIN2L-1" value="&lt;span style=&quot;font-size: 20px&quot;&gt;&lt;b&gt;Main&lt;/b&gt;&lt;/span&gt;" style="ellipse;whiteSpace=wrap;html=1;aspect=fixed;fillColor=#dae8fc;strokeColor=#6c8ebf;" parent="1" vertex="1">
          <mxGeometry x="140" y="120" width="70" height="70" as="geometry" />
        </mxCell>
        <mxCell id="uuzsLNwZXtXoxCtTIN2L-15" style="edgeStyle=orthogonalEdgeStyle;rounded=0;orthogonalLoop=1;jettySize=auto;html=1;strokeColor=default;strokeWidth=2;entryX=0.5;entryY=0;entryDx=0;entryDy=0;" parent="1" source="uuzsLNwZXtXoxCtTIN2L-2" edge="1" target="1TxMZOOEquq5v0mNQYeC-10">
          <mxGeometry relative="1" as="geometry">
            <mxPoint x="465" y="400" as="targetPoint" />
          </mxGeometry>
        </mxCell>
        <mxCell id="1TxMZOOEquq5v0mNQYeC-9" value="&lt;b&gt;&lt;font style=&quot;font-size: 15px&quot;&gt;Working&lt;/font&gt;&lt;/b&gt;" style="edgeLabel;html=1;align=center;verticalAlign=middle;resizable=0;points=[];" vertex="1" connectable="0" parent="uuzsLNwZXtXoxCtTIN2L-15">
          <mxGeometry x="0.1048" y="-1" relative="1" as="geometry">
            <mxPoint as="offset" />
          </mxGeometry>
        </mxCell>
        <mxCell id="1TxMZOOEquq5v0mNQYeC-12" style="edgeStyle=orthogonalEdgeStyle;rounded=0;orthogonalLoop=1;jettySize=auto;html=1;strokeColor=default;strokeWidth=2;endArrow=none;endFill=0;" edge="1" parent="1" source="uuzsLNwZXtXoxCtTIN2L-2" target="1TxMZOOEquq5v0mNQYeC-6">
          <mxGeometry relative="1" as="geometry" />
        </mxCell>
        <mxCell id="uuzsLNwZXtXoxCtTIN2L-2" value="&lt;b&gt;&lt;font style=&quot;font-size: 20px&quot;&gt;Sub&lt;/font&gt;&lt;/b&gt;" style="ellipse;whiteSpace=wrap;html=1;aspect=fixed;fillColor=#f8cecc;strokeColor=#b85450;" parent="1" vertex="1">
          <mxGeometry x="430" y="120" width="70" height="70" as="geometry" />
        </mxCell>
        <mxCell id="1TxMZOOEquq5v0mNQYeC-5" value="&lt;b&gt;&lt;font style=&quot;font-size: 15px&quot;&gt;제어권을 넘김&lt;/font&gt;&lt;/b&gt;" style="text;html=1;align=center;verticalAlign=middle;resizable=0;points=[];autosize=1;strokeColor=none;fillColor=none;" vertex="1" parent="1">
          <mxGeometry x="270" y="200" width="110" height="20" as="geometry" />
        </mxCell>
        <mxCell id="1TxMZOOEquq5v0mNQYeC-6" value="&lt;b&gt;&lt;font style=&quot;font-size: 15px&quot;&gt;제어권&lt;/font&gt;&lt;/b&gt;" style="rounded=1;whiteSpace=wrap;html=1;fillColor=#d5e8d4;strokeColor=#82b366;strokeWidth=3;" vertex="1" parent="1">
          <mxGeometry x="435" y="210" width="60" height="30" as="geometry" />
        </mxCell>
        <mxCell id="1TxMZOOEquq5v0mNQYeC-1" value="&lt;b&gt;&lt;font style=&quot;font-size: 15px&quot;&gt;제어권&lt;/font&gt;&lt;/b&gt;" style="rounded=1;whiteSpace=wrap;html=1;fillColor=#d5e8d4;strokeColor=#82b366;dashed=1;" vertex="1" parent="1">
          <mxGeometry x="145" y="210" width="60" height="30" as="geometry" />
        </mxCell>
        <mxCell id="1TxMZOOEquq5v0mNQYeC-8" value="" style="edgeStyle=orthogonalEdgeStyle;rounded=0;orthogonalLoop=1;jettySize=auto;html=1;strokeColor=default;strokeWidth=2;endArrow=none;" edge="1" parent="1" source="uuzsLNwZXtXoxCtTIN2L-1" target="1TxMZOOEquq5v0mNQYeC-1">
          <mxGeometry relative="1" as="geometry">
            <mxPoint x="175" y="640" as="targetPoint" />
            <mxPoint x="175" y="190" as="sourcePoint" />
          </mxGeometry>
        </mxCell>
        <mxCell id="1TxMZOOEquq5v0mNQYeC-13" style="edgeStyle=orthogonalEdgeStyle;rounded=0;orthogonalLoop=1;jettySize=auto;html=1;endArrow=classic;endFill=1;strokeColor=default;strokeWidth=2;entryX=1;entryY=0.5;entryDx=0;entryDy=0;" edge="1" parent="1" source="1TxMZOOEquq5v0mNQYeC-10" target="1TxMZOOEquq5v0mNQYeC-17">
          <mxGeometry relative="1" as="geometry">
            <mxPoint x="200" y="415" as="targetPoint" />
          </mxGeometry>
        </mxCell>
        <mxCell id="1TxMZOOEquq5v0mNQYeC-10" value="" style="ellipse;whiteSpace=wrap;html=1;aspect=fixed;fillColor=none;strokeColor=none;" vertex="1" parent="1">
          <mxGeometry x="450" y="400" width="30" height="30" as="geometry" />
        </mxCell>
        <mxCell id="1TxMZOOEquq5v0mNQYeC-11" value="" style="ellipse;whiteSpace=wrap;html=1;aspect=fixed;fillColor=none;strokeColor=none;" vertex="1" parent="1">
          <mxGeometry x="160" y="400" width="30" height="30" as="geometry" />
        </mxCell>
        <mxCell id="1TxMZOOEquq5v0mNQYeC-14" value="&lt;b&gt;&lt;font style=&quot;font-size: 15px&quot;&gt;제어권을 돌려받음&lt;/font&gt;&lt;/b&gt;" style="text;html=1;align=center;verticalAlign=middle;resizable=0;points=[];autosize=1;strokeColor=none;fillColor=none;" vertex="1" parent="1">
          <mxGeometry x="250" y="390" width="140" height="20" as="geometry" />
        </mxCell>
        <mxCell id="1TxMZOOEquq5v0mNQYeC-15" value="&lt;b&gt;&lt;font style=&quot;font-size: 15px&quot;&gt;Terminated&lt;/font&gt;&lt;/b&gt;" style="text;html=1;align=center;verticalAlign=middle;resizable=0;points=[];autosize=1;strokeColor=none;fillColor=none;" vertex="1" parent="1">
          <mxGeometry x="450" y="405" width="100" height="20" as="geometry" />
        </mxCell>
        <mxCell id="1TxMZOOEquq5v0mNQYeC-20" style="edgeStyle=orthogonalEdgeStyle;rounded=0;orthogonalLoop=1;jettySize=auto;html=1;endArrow=classic;endFill=1;strokeColor=default;strokeWidth=2;" edge="1" parent="1" source="1TxMZOOEquq5v0mNQYeC-17">
          <mxGeometry relative="1" as="geometry">
            <mxPoint x="175" y="640" as="targetPoint" />
          </mxGeometry>
        </mxCell>
        <mxCell id="1TxMZOOEquq5v0mNQYeC-21" value="&lt;b&gt;&lt;font style=&quot;font-size: 15px&quot;&gt;Working&lt;/font&gt;&lt;/b&gt;" style="edgeLabel;html=1;align=center;verticalAlign=middle;resizable=0;points=[];" vertex="1" connectable="0" parent="1TxMZOOEquq5v0mNQYeC-20">
          <mxGeometry x="-0.0952" y="1" relative="1" as="geometry">
            <mxPoint as="offset" />
          </mxGeometry>
        </mxCell>
        <mxCell id="1TxMZOOEquq5v0mNQYeC-17" value="&lt;b&gt;&lt;font style=&quot;font-size: 15px&quot;&gt;제어권&lt;/font&gt;&lt;/b&gt;" style="rounded=1;whiteSpace=wrap;html=1;fillColor=#d5e8d4;strokeColor=#82b366;strokeWidth=3;" vertex="1" parent="1">
          <mxGeometry x="145" y="400" width="60" height="30" as="geometry" />
        </mxCell>
      </root>
    </mxGraphModel>
  </diagram>
</mxfile>
